<svg width="40" height="17" viewBox="0 0 40 17" fill="none" xmlns="http://www.w3.org/2000/svg">
<rect y="0.5" width="40" height="16" rx="8" fill="#FFCD71"/>
<path d="M7.17898 12.5H6.25568L8.92614 5.22727H9.83523L12.5057 12.5H11.5824L9.40909 6.37784H9.35227L7.17898 12.5ZM7.51989 9.65909H11.2415V10.4403H7.51989V9.65909ZM15.0845 12.6136C14.63 12.6136 14.2287 12.4988 13.8807 12.2692C13.5327 12.0372 13.2604 11.7105 13.0639 11.2891C12.8674 10.8653 12.7692 10.3646 12.7692 9.78693C12.7692 9.21402 12.8674 8.71686 13.0639 8.29545C13.2604 7.87405 13.5339 7.54853 13.8842 7.31889C14.2346 7.08925 14.6394 6.97443 15.0987 6.97443C15.4538 6.97443 15.7344 7.03362 15.9403 7.15199C16.1487 7.26799 16.3073 7.40057 16.4162 7.54972C16.5275 7.6965 16.6139 7.81723 16.6754 7.91193H16.7464V5.22727H17.5845V12.5H16.7749V11.6619H16.6754C16.6139 11.7614 16.5263 11.8868 16.4126 12.0384C16.299 12.1875 16.1368 12.3213 15.9261 12.4396C15.7154 12.5556 15.4349 12.6136 15.0845 12.6136ZM15.1982 11.8608C15.5343 11.8608 15.8184 11.7732 16.0504 11.598C16.2824 11.4205 16.4588 11.1754 16.5795 10.8629C16.7003 10.5481 16.7607 10.1847 16.7607 9.77273C16.7607 9.36553 16.7015 9.00923 16.5831 8.70384C16.4647 8.39607 16.2895 8.15696 16.0575 7.98651C15.8255 7.81368 15.5391 7.72727 15.1982 7.72727C14.843 7.72727 14.5471 7.81842 14.3104 8.00071C14.076 8.18063 13.8996 8.42566 13.7812 8.7358C13.6652 9.04356 13.6072 9.3892 13.6072 9.77273C13.6072 10.161 13.6664 10.5137 13.7848 10.831C13.9055 11.1458 14.0831 11.3968 14.3175 11.5838C14.5542 11.7685 14.8478 11.8608 15.1982 11.8608ZM18.7358 12.5V7.04545H19.5455V7.89773H19.6165C19.7301 7.60653 19.9136 7.38045 20.1669 7.21946C20.4202 7.05611 20.7244 6.97443 21.0795 6.97443C21.4394 6.97443 21.7389 7.05611 21.978 7.21946C22.2195 7.38045 22.4077 7.60653 22.5426 7.89773H22.5994C22.7391 7.616 22.9486 7.39228 23.228 7.22656C23.5073 7.05848 23.8423 6.97443 24.233 6.97443C24.7206 6.97443 25.1196 7.12713 25.4297 7.43253C25.7398 7.73556 25.8949 8.20786 25.8949 8.84943V12.5H25.0568V8.84943C25.0568 8.44697 24.9467 8.15933 24.7266 7.98651C24.5064 7.81368 24.2472 7.72727 23.9489 7.72727C23.5653 7.72727 23.2682 7.84328 23.0575 8.07528C22.8468 8.30492 22.7415 8.59612 22.7415 8.94886V12.5H21.8892V8.7642C21.8892 8.45407 21.7886 8.20431 21.5874 8.01491C21.3861 7.82315 21.1269 7.72727 20.8097 7.72727C20.5919 7.72727 20.3883 7.78527 20.1989 7.90128C20.0118 8.01728 19.8603 8.17827 19.7443 8.38423C19.6307 8.58783 19.5739 8.82339 19.5739 9.09091V12.5H18.7358ZM26.9272 12.5V7.04545H27.7653V12.5H26.9272ZM27.3533 6.13636C27.19 6.13636 27.0491 6.08073 26.9308 5.96946C26.8147 5.85819 26.7567 5.72443 26.7567 5.56818C26.7567 5.41193 26.8147 5.27817 26.9308 5.1669C27.0491 5.05563 27.19 5 27.3533 5C27.5167 5 27.6564 5.05563 27.7724 5.1669C27.8907 5.27817 27.9499 5.41193 27.9499 5.56818C27.9499 5.72443 27.8907 5.85819 27.7724 5.96946C27.6564 6.08073 27.5167 6.13636 27.3533 6.13636ZM29.6383 9.21875V12.5H28.8002V7.04545H29.6099V7.89773H29.6809C29.8088 7.62074 30.0029 7.3982 30.2633 7.23011C30.5237 7.05966 30.8599 6.97443 31.2718 6.97443C31.6412 6.97443 31.9643 7.05019 32.2413 7.2017C32.5183 7.35085 32.7337 7.57812 32.8876 7.88352C33.0415 8.18655 33.1184 8.57008 33.1184 9.03409V12.5H32.2804V9.09091C32.2804 8.66241 32.1691 8.3286 31.9466 8.08949C31.724 7.84801 31.4186 7.72727 31.0304 7.72727C30.7628 7.72727 30.5237 7.78527 30.313 7.90128C30.1047 8.01728 29.9402 8.18655 29.8194 8.40909C29.6987 8.63163 29.6383 8.90152 29.6383 9.21875Z" fill="#131313"/>
</svg>
